<svg xmlns="http://www.w3.org/2000/svg" viewBox="-39 -39 128 128">
  <path fill="#FFF" d="M15.527 16.675a7.98 7.98 0 0 1-7.163-4.408C6.378 8.319 7.97 3.492 11.915 1.502a8.074 8.074 0 0 1 3.6-.857 7.994 7.994 0 0 1 7.166 4.405c1.99 3.948.395 8.777-3.55 10.762a8.027 8.027 0 0 1-3.604.863m-9.405 16.38c-.157 0-.309-.005-.464-.01-4.406-.256-7.794-4.051-7.542-8.459.248-4.395 4.015-7.808 8.456-7.547 4.41.245 7.793 4.044 7.544 8.456-.244 4.243-3.759 7.56-7.994 7.56m9.464 16.337a7.995 7.995 0 0 1-4.389-1.312 7.965 7.965 0 0 1-3.45-5.067 7.961 7.961 0 0 1 1.141-6.026 8.007 8.007 0 0 1 11.097-2.309 7.947 7.947 0 0 1 3.453 5.07 7.93 7.93 0 0 1-1.144 6.025 7.986 7.986 0 0 1-6.708 3.619m18.9-.039a7.983 7.983 0 0 1-7.158-4.408 7.946 7.946 0 0 1-.454-6.117 7.97 7.97 0 0 1 4.004-4.647 8.009 8.009 0 0 1 3.603-.858 7.974 7.974 0 0 1 7.162 4.411c1.985 3.945.394 8.773-3.553 10.761a8.063 8.063 0 0 1-3.604.858m9.416-16.376c-.158 0-.311-.011-.465-.017-4.415-.248-7.796-4.048-7.547-8.454.251-4.397 4.02-7.809 8.461-7.55a7.952 7.952 0 0 1 5.521 2.665 7.94 7.94 0 0 1 2.016 5.792c-.238 4.241-3.749 7.564-7.986 7.564m-9.496-16.339a7.97 7.97 0 0 1-4.389-1.315c-3.698-2.426-4.729-7.401-2.305-11.098A7.998 7.998 0 0 1 34.416.607c1.562 0 3.082.454 4.39 1.312 3.696 2.42 4.731 7.399 2.307 11.095a8.007 8.007 0 0 1-6.707 3.624M7.503-13.113a3.998 3.998 0 0 1-1.771 5.375 4.004 4.004 0 0 1-3.604-7.15 4.005 4.005 0 0 1 5.375 1.775m-24.255 34.207a4.005 4.005 0 1 1-.455 8 4.016 4.016 0 0 1-3.77-4.229 4.006 4.006 0 0 1 4.225-3.771M.743 59.204a4 4 0 0 1 5.542-1.15 4 4 0 0 1 1.152 5.545 4.008 4.008 0 0 1-5.543 1.153 4.009 4.009 0 0 1-1.151-5.548m41.76 3.906a4.005 4.005 0 0 1 1.767-5.375 4.01 4.01 0 0 1 5.379 1.771 3.998 3.998 0 0 1-1.774 5.377 3.993 3.993 0 0 1-5.372-1.773m24.253-34.207a4.003 4.003 0 0 1-3.771-4.224 4.007 4.007 0 0 1 8 .455 4.005 4.005 0 0 1-4.229 3.769M49.264-9.209a4.002 4.002 0 0 1-5.543 1.154 3.997 3.997 0 0 1-1.151-5.543 4 4 0 0 1 5.54-1.155 4.008 4.008 0 0 1 1.154 5.544M-1.252-25.396a2.592 2.592 0 0 1-1.146 3.479 2.587 2.587 0 0 1-3.48-1.148 2.59 2.59 0 1 1 4.626-2.331M-31.77 22.538a2.59 2.59 0 0 1 2.44 2.731c-.084 1.427-1.307 2.526-2.731 2.436a2.58 2.58 0 0 1-2.439-2.728 2.59 2.59 0 0 1 2.73-2.439m26.255 50.394a2.59 2.59 0 0 1 3.591-.742 2.59 2.59 0 0 1 .741 3.589 2.595 2.595 0 0 1-3.585.745 2.597 2.597 0 0 1-.747-3.592m56.773 2.465a2.59 2.59 0 0 1 4.624-2.334 2.582 2.582 0 0 1-1.145 3.475 2.587 2.587 0 0 1-3.479-1.141m30.514-47.932a2.597 2.597 0 0 1-2.443-2.737 2.589 2.589 0 0 1 2.738-2.439 2.58 2.58 0 0 1 2.433 2.733 2.593 2.593 0 0 1-2.728 2.443m-26.25-50.401a2.593 2.593 0 0 1-4.337-2.841 2.588 2.588 0 0 1 3.587-.741 2.587 2.587 0 0 1 .75 3.582M-.468 4.95a4.704 4.704 0 0 1 1.354 6.518 4.704 4.704 0 0 1-6.523 1.354 4.704 4.704 0 0 1-1.354-6.52A4.712 4.712 0 0 1-.468 4.95M-5.1 37.032a4.713 4.713 0 0 1 6.328 2.087A4.714 4.714 0 0 1-.86 45.445a4.71 4.71 0 1 1-4.24-8.413m25.13 20.052A4.72 4.72 0 0 1 25 52.645a4.711 4.711 0 0 1 4.437 4.971 4.71 4.71 0 0 1-4.973 4.438 4.713 4.713 0 0 1-4.434-4.97m30.446-12.028a4.723 4.723 0 0 1-1.36-6.525 4.716 4.716 0 0 1 6.52-1.354 4.708 4.708 0 0 1-5.16 7.879m4.629-32.089a4.707 4.707 0 0 1-6.325-2.084 4.706 4.706 0 0 1 2.084-6.323 4.718 4.718 0 0 1 6.335 2.085 4.713 4.713 0 0 1-2.094 6.322M29.641-7.083a4.718 4.718 0 0 1-4.979 4.434 4.712 4.712 0 0 1 .531-9.408 4.72 4.72 0 0 1 4.448 4.974M-18.01-3.5a3.293 3.293 0 0 1 .948 4.564 3.29 3.29 0 0 1-4.564.947 3.294 3.294 0 0 1-.948-4.564A3.292 3.292 0 0 1-18.01-3.5m-3.178 51.497a3.298 3.298 0 1 1-1.46 4.431 3.305 3.305 0 0 1 1.46-4.431m42.675 28.502a3.29 3.29 0 0 1 3.477-3.103 3.29 3.29 0 0 1 3.104 3.475 3.29 3.29 0 0 1-3.477 3.108 3.292 3.292 0 0 1-3.104-3.48m46.521-22.998a3.297 3.297 0 0 1-.945-4.563 3.297 3.297 0 0 1 4.565-.951 3.299 3.299 0 0 1-3.62 5.514m3.184-51.496A3.304 3.304 0 0 1 66.76.539a3.294 3.294 0 0 1 1.463-4.425 3.296 3.296 0 0 1 4.427 1.458 3.305 3.305 0 0 1-1.458 4.433M28.182-26.5a3.296 3.296 0 0 1-3.482 3.104 3.298 3.298 0 1 1 3.482-3.104"/>
</svg>
