<svg version="1.1" xmlns="http://www.w3.org/2000/svg" xmlns:xlink="http://www.w3.org/1999/xlink" viewBox="0 0 100.5 21.3" xml:space="preserve">
	<title>Gottfrei</title>
<g>
	<path d="M9.2,13.7l5.8,0c-1,1.6-2.6,2.6-4.4,2.6c-3.1,0-5.5-2.4-5.5-5.6c0-3.1,2.4-5.4,5.5-5.4c1.6,0,2.9,0.6,4,2h5.8l0-7.1H16v2
		c-0.9-0.6-1.1-0.7-1.4-0.9c-1.1-0.6-2.7-1-4.2-1C4.6,0.3,0,5,0,10.7c0,5.8,4.6,10.5,10.4,10.5c2.6,0,4.7-0.9,6-2.5l0,2.1l4.1,0
		l0-11.3H9.2V13.7z"></path>
	<path d="M29.2,5.2c-4.4,0-8.1,3.6-8.1,8c0,4.4,3.7,8.1,8.1,8.1c4.4,0,8.1-3.6,8.1-8C37.4,8.8,33.8,5.2,29.2,5.2z M29.3,16.9
		c-2,0-3.6-1.7-3.6-3.7c0-2,1.6-3.7,3.6-3.7c2,0,3.6,1.6,3.6,3.7C32.8,15.2,31.2,16.9,29.3,16.9z"></path>
	<path d="M49.7,9.8l0,11h4.5l0-11h4.1l0,11h4.5l0-11h4.1l0,11l4.5,0v-6.9c0-2.4,2-4.2,4.4-3.9V5.4c-2.1-0.2-4.1,1.3-4.8,3V5.6h-8.2
		c0-0.6,0.1-0.8,0.2-1.1c0.2-0.4,0.7-0.7,1.3-0.7c0.5,0,2.1,0,2.4,0V0.1c-0.3,0-1.5-0.1-2-0.1c-4.2-0.1-6.3,1.7-6.4,5.6h-4.1V0.2
		h-4.5v5.5h-4.1l0-5.5h-4.5v5.5h-4.3v4.1h4.3v11.1l4.5,0l0-11H49.7z"></path>
	<path d="M83.5,17.4c-1.7,0-3-0.9-3.7-2.4L91,15c0.2-0.8,0.2-1.2,0.2-1.8c0-4.5-3.5-7.9-7.9-7.9c-4.4,0-7.9,3.5-7.9,8.1
		c0,4.5,3.5,8.1,8,8.1c3.2,0,6-1.9,7.2-5h-4.6C85.4,17,84.5,17.4,83.5,17.4z M83.3,9.1c1.7,0,3.1,0.9,3.8,2.5h-7.4
		C80.3,10.1,81.7,9.1,83.3,9.1z"></path>
	<rect x="93.8" y="0" width="4.3" height="4"></rect>
	<polygon points="98.2,16.3 98.2,5.6 91.6,5.6 91.6,9.8 93.7,9.8 93.7,16.3 91.6,16.3 91.6,20.8 100.5,20.8 100.5,16.3 	"></polygon>
</g>
</svg>